<svg width="21" height="23" viewBox="0 0 21 23" fill="none" xmlns="http://www.w3.org/2000/svg">
<g clip-path="url(#clip0_26_136)">
<path d="M10.0953 6.42853C7.25695 6.42853 4.96754 8.71794 4.96754 11.5563C4.96754 14.3946 7.25695 16.684 10.0953 16.684C12.9336 16.684 15.223 14.3946 15.223 11.5563C15.223 8.71794 12.9336 6.42853 10.0953 6.42853ZM10.0953 14.89C8.26108 14.89 6.76158 13.3949 6.76158 11.5563C6.76158 9.7176 8.25661 8.22257 10.0953 8.22257C11.934 8.22257 13.429 9.7176 13.429 11.5563C13.429 13.3949 11.9295 14.89 10.0953 14.89ZM16.6288 6.21878C16.6288 6.88373 16.0933 7.4148 15.4328 7.4148C14.7678 7.4148 14.2368 6.87927 14.2368 6.21878C14.2368 5.55828 14.7723 5.02275 15.4328 5.02275C16.0933 5.02275 16.6288 5.55828 16.6288 6.21878ZM20.025 7.43266C19.9491 5.83051 19.5832 4.41135 18.4095 3.24209C17.2402 2.07284 15.821 1.70689 14.2189 1.62656C12.5677 1.53284 7.61843 1.53284 5.9672 1.62656C4.36952 1.70243 2.95035 2.06838 1.77664 3.23763C0.602926 4.40688 0.24144 5.82605 0.161109 7.42819C0.0673907 9.07943 0.0673907 14.0287 0.161109 15.6799C0.236977 17.282 0.602926 18.7012 1.77664 19.8705C2.95035 21.0397 4.36506 21.4057 5.9672 21.486C7.61843 21.5797 12.5677 21.5797 14.2189 21.486C15.821 21.4101 17.2402 21.0442 18.4095 19.8705C19.5787 18.7012 19.9447 17.282 20.025 15.6799C20.1187 14.0287 20.1187 9.08389 20.025 7.43266ZM17.8918 17.4516C17.5437 18.3263 16.8698 19.0002 15.9906 19.3528C14.6741 19.8749 11.5502 19.7544 10.0953 19.7544C8.64041 19.7544 5.512 19.8705 4.19994 19.3528C3.32523 19.0047 2.65135 18.3308 2.29879 17.4516C1.77664 16.1351 1.89714 13.0111 1.89714 11.5563C1.89714 10.1014 1.7811 6.97299 2.29879 5.66093C2.64688 4.78622 3.32077 4.11234 4.19994 3.75978C5.51646 3.23763 8.64041 3.35813 10.0953 3.35813C11.5502 3.35813 14.6786 3.24209 15.9906 3.75978C16.8653 4.10788 17.5392 4.78176 17.8918 5.66093C18.4139 6.97745 18.2934 10.1014 18.2934 11.5563C18.2934 13.0111 18.4139 16.1396 17.8918 17.4516Z" fill="white"/>
</g>
<defs>
<clipPath id="clip0_26_136">
<rect width="19.8675" height="22.8571" fill="white" transform="translate(0.258301)"/>
</clipPath>
</defs>
</svg>
