<svg width="21" height="23" viewBox="0 0 21 23" fill="none" xmlns="http://www.w3.org/2000/svg">
<g clip-path="url(#clip0_26_140)">
<path d="M5.02464 21.5558H0.878209V8.20315H5.02464V21.5558ZM2.94919 6.38172C1.6233 6.38172 0.547852 5.28351 0.547852 3.95761C0.547852 3.32074 0.800849 2.70995 1.25119 2.25961C1.70153 1.80927 2.31232 1.55627 2.94919 1.55627C3.58607 1.55627 4.19686 1.80927 4.64719 2.25961C5.09753 2.70995 5.35053 3.32074 5.35053 3.95761C5.35053 5.28351 4.27464 6.38172 2.94919 6.38172ZM20.5434 21.5558H16.4059V15.0558C16.4059 13.5067 16.3746 11.5201 14.2501 11.5201C12.0943 11.5201 11.7639 13.2031 11.7639 14.9442V21.5558H7.62196V8.20315H11.5987V10.0246H11.6568C12.2104 8.97547 13.5626 7.86833 15.58 7.86833C19.7764 7.86833 20.5479 10.6317 20.5479 14.221V21.5558H20.5434Z" fill="#F0F3FF" fill-opacity="0.95"/>
</g>
<defs>
<clipPath id="clip0_26_140">
<rect width="19.8675" height="22.8571" fill="white" transform="translate(0.715332)"/>
</clipPath>
</defs>
</svg>
